<svg width="1035" height="188" viewBox="0 0 1035 188" fill="none" xmlns="http://www.w3.org/2000/svg">
<g clip-path="url(#clip0_2102_6)">
<path d="M650.6 23.8C647.533 25.5333 644.333 32.0667 644.333 36.3333C644.333 45.4 653.4 52.7333 662.2 50.8667C674.333 48.3333 678.333 32.6 668.733 25C665 22.0667 654.867 21.4 650.6 23.8Z" fill="black"/>
<path d="M605.667 51.8V78.6L601.933 74.6C594.733 66.8667 587.8 64.3333 573.667 64.3333C562.467 64.3333 560.067 64.7333 553.4 68.0667C537.8 75.6667 528.733 90.8667 527.4 111.133C526.2 128.733 530.467 141.933 540.867 152.733C549.133 161.4 557.667 165.267 570.067 166.067C583.8 166.867 590.867 164.733 599.133 157.4L605.667 151.4V158.2V165H617H628.333V95V25H617H605.667V51.8ZM585 85.1333C600.733 89.4 609.533 107.933 604.333 126.333C601.4 136.867 589.4 146.2 578.867 146.333C562.467 146.467 551 133.533 551 115C551 100.2 557.533 89.8 569.133 85.6667C575.533 83.4 578.2 83.2667 585 85.1333Z" fill="black"/>
<path d="M260.333 96.3334V165H272.333H284.333V117.267V69.6667L303.4 117L322.467 164.333H332.733H343.133L362.067 117L381 69.6667L381.4 117.4L381.667 165.133L393.4 164.733L405 164.333V96.3334V28.3334L390.067 27.9334L375 27.5334L371.933 34.6C370.2 38.4667 360.867 61.6667 351.133 86.0667C341.267 110.467 333.133 130.2 332.867 130.067C332.733 129.8 323.133 106.867 311.8 79L291.133 28.3334L275.8 27.9334L260.333 27.5334V96.3334Z" fill="black"/>
<path d="M804.333 51V64.8667L796.067 65.2667L787.667 65.6667L787.267 75.9333L786.867 86.3333H795.667H804.333V113.267C804.333 128.2 805 142.467 805.667 145.133C807.8 153 812.6 158.733 819.533 162.2C825.133 165 827.933 165.533 838.6 165.4C845.533 165.4 851.8 164.733 852.467 164.067C853.133 163.4 853.4 158.867 852.867 153.267L851.933 143.8L845.533 144.6C829.933 146.467 828.2 143.667 827.667 115.933C827.4 104.467 827.533 93.1333 827.933 90.7333L828.6 86.4667L840.2 86.0667L851.667 85.6667V75.6667V65.6667L839.667 65L827.667 64.3333L827.533 57.6667C827.4 53.9333 827.267 47.8 827.133 43.9333L827 37H815.667H804.333V51Z" fill="black"/>
<path d="M987 51V64.8667L978.733 65.2667L970.333 65.6667V75.6667V85.6667L978.733 86.0667L987 86.4667V114.2C987 143.533 987.667 147.8 993.4 155.533C999.133 163.267 1013.67 167.533 1027.67 165.267C1034.07 164.333 1034.33 164.067 1034.73 159.667C1035 157.133 1034.87 152.6 1034.33 149.533L1033.53 143.933L1026.33 144.6C1017.27 145.533 1013 143.133 1011.13 136.067C1010.33 133.267 1009.67 121 1009.67 108.6V86.3333H1021.53H1033.4L1033.93 76.2C1034.2 70.6 1034.07 65.8 1033.8 65.5333C1033.53 65.2667 1027.93 65 1021.4 65H1009.67V51V37H998.333H987V51Z" fill="black"/>
<path d="M66.0261 0.548933C65.0512 0.992061 63.456 2.23282 62.4811 3.29633C60.7972 5.15746 60.7086 6.48685 60.7086 28.2001V51.1541L77.1043 67.5499L93.5 83.9456L109.63 67.8158L125.848 51.5973V28.0229V4.44846L123.544 2.32144L121.24 0.19443L94.5635 0.0171792C79.8517 -0.0714464 67.001 0.19443 66.0261 0.548933Z" fill="#3FBDB5"/>
<path d="M4.78578 61.7892C0.177251 63.6503 0 64.5366 0 93.5172C0 110.267 0.354502 121.08 0.886256 122.143C3.01327 125.954 5.93791 126.486 25.7014 126.486H44.3128V109.204C44.3128 95.8214 44.5787 91.9219 45.4649 91.9219C46.0853 91.9219 49.5417 94.9352 53.1754 98.5688L59.8223 105.216L60.2654 143.768L60.7085 182.32L63.19 184.713L65.5829 187.194H93.5886H121.594L123.721 184.713L125.848 182.231V145.895C125.848 116.826 126.114 109.027 127.089 106.722C128.684 103.089 140.383 91.4788 141.712 92.2764C142.333 92.7195 142.687 98.3916 142.687 109.736V126.486H161.299C181.062 126.486 183.987 125.954 186.114 122.143C186.646 121.08 187 110.179 187 93.3399V66.3091L184.873 63.8276L182.746 61.3461L161.299 61.0802L139.763 60.8143L117.074 83.4138C104.49 95.9101 93.9431 106.102 93.5 106.102C93.0569 106.102 82.5104 95.91 70.0142 83.5025L47.3261 60.9029L26.9422 60.9916C15.7754 60.9916 5.76066 61.3461 4.78578 61.7892Z" fill="#3FBDB5"/>
<path d="M454.067 65.5333C435.267 71.6667 423.133 86.2 420.333 106.067C416.867 130.467 427.933 152.733 448.067 162.067C454.867 165.267 457.267 165.667 471 165.667C485.133 165.667 487 165.4 493.933 161.933C503.4 157.267 510.867 149.933 515 141.133C516.733 137.4 517.933 134.067 517.533 133.8C517.267 133.533 512.2 133 506.2 132.6L495.4 131.933L493 136.467C490.067 141.933 486.467 144.467 478.333 146.467C465.267 149.8 451 143 445.533 131C440.6 120.333 438.333 121 480.333 121C511.133 121 517.933 120.733 518.467 119.133C519.8 115.533 516.333 96.7334 512.867 89.4C505.133 73.1333 491.8 64.8667 471.8 64.2C463.933 63.8 457.667 64.3333 454.067 65.5333ZM481.133 85.1333C487.267 88.0667 491.8 93.9333 493.133 100.867L494.067 105H468.467C454.467 105 443 104.733 443 104.333C443 102.067 447.533 93.2667 450.067 90.4667C457.4 82.6 471 80.2 481.133 85.1333Z" fill="black"/>
<path d="M718.867 65.6667C704.6 70.2 692.067 82.7334 687.533 96.8667C684.2 107.533 684.467 124.733 688.2 134.6C693.8 149.133 703.533 158.6 718.467 163.8C724.867 166.067 728.6 166.467 739 166.067C754.333 165.4 762.2 162.333 771.133 153.533C776.6 148.067 784.333 135.133 782.867 133.8C782.6 133.533 777.533 133 771.667 132.733L761 131.933L757.4 137.133C745.933 153.267 719.4 149.8 710.867 131C705.933 120.333 703.667 121 745.667 121C776.467 121 783.267 120.733 783.8 119.133C785.133 115.533 781.667 96.8667 778.333 89.6667C773.933 80.4667 765.533 72.0667 756.467 67.9334C747.267 63.6667 728.467 62.6 718.867 65.6667ZM743.933 83.8C751.133 86.4667 759 96.0667 759 102.333C759 104.867 758.333 105 733.667 105C719.8 105 708.333 104.733 708.333 104.333C708.333 102.067 712.867 93.2667 715.4 90.4667C721.8 83.5334 735 80.3334 743.933 83.8Z" fill="black"/>
<path d="M891.667 65.5333C883.267 68.2 878.6 71 872.467 77.1333C861.933 87.6666 856.867 102.733 858.067 119.667C859 134.2 863.133 143.933 872.2 153.133C882.467 163.533 891.267 166.867 907 166.067C919.533 165.4 924.067 163.667 932.467 156.067L937.667 151.4V158.2V165H949H960.333V116.333C960.333 89.5333 960.333 67.2666 960.333 66.6C960.333 66.0666 955.4 65.6666 949.4 65.6666H938.333L937.667 72.0666L937 78.4666L932.467 73.8C923.8 64.8666 905.533 61.1333 891.667 65.5333ZM923.667 88.2C935.8 94.7333 941.267 114.2 935 128.733C926.867 147.667 904.2 152.333 890.333 137.8C874.6 121.533 880.867 91 901 85.6666C909 83.5333 916.467 84.3333 923.667 88.2Z" fill="black"/>
<path d="M647.667 66.7334C647.267 67.5334 647.133 89.9334 647.267 116.333L647.667 164.333L659.4 164.733L671 165.133V115V65H659.667C651.667 65 648.067 65.5334 647.667 66.7334Z" fill="black"/>
</g>
<defs>
<clipPath id="clip0_2102_6">
<rect width="1035" height="188" fill="white"/>
</clipPath>
</defs>
</svg>
